# xmcd CD database file
#
# Track frame offsets:
#	187
#	36712
#	63712
#	88837
#	133162
#	153637
#	183262
#	230062
#	264637
#
# Disc length: 3932 seconds
#
# Revision: 0
# Processed by: cddbd v1.5.1PL0 Copyright (c) Steve Scherf et al.
# Submitted via: CDex 1.51
#
DISCID=8b0f5a09
DTITLE=Tommy Flanagan - The Super Jazz Trio Special
DYEAR=1978
DGENRE=Jazz
TTITLE0=So Sorry Please
TTITLE1=Here's That Rainy Day
TTITLE2=Pent Up House
TTITLE3=It Might As Well Be Spring
TTITLE4=Ballad
TTITLE5=Au Privave
TTITLE6=Condado beach
TTITLE7=Blame It On My Youth
TTITLE8=Milestones
EXTD=YEAR: 1978
EXTT0=
EXTT1=
EXTT2=
EXTT3=
EXTT4=
EXTT5=
EXTT6=
EXTT7=
EXTT8=
PLAYORDER=
